<?xml version="1.0" encoding="iso-8859-1"?>
<!-- Generator: Adobe Illustrator 19.0.0, SVG Export Plug-In . SVG Version: 6.00 Build 0)  -->
<svg version="1.1" id="Layer_1" xmlns="http://www.w3.org/2000/svg" xmlns:xlink="http://www.w3.org/1999/xlink" x="0px" y="0px"
	 viewBox="0 0 512 512" style="enable-background:new 0 0 512 512;" xml:space="preserve">
<circle style="fill:#273B7A;" cx="256" cy="256" r="256"/>
<path style="fill:#121149;" d="M502.7,324.563L263.471,85.333l-12.641,62.061l-54.015,14.365l-46.545,44.247l-3.448,51.143
	l-61.488,6.299l239.245,239.245C410.838,478.768,478.779,410.824,502.7,324.563z"/>
<path style="fill:#FFC61B;" d="M417.185,243.933h-35.931c-5.715-59.775-53.412-107.472-113.186-113.186V94.815
	c0-6.665-5.403-12.067-12.067-12.067c-6.665,0-12.067,5.403-12.067,12.067v35.931c-59.775,5.715-107.472,53.412-113.186,113.186
	H94.815c-6.665,0-12.067,5.403-12.067,12.067c0,6.665,5.403,12.067,12.067,12.067h35.931
	c5.715,59.775,53.412,107.472,113.186,113.186v35.931c0,6.665,5.403,12.067,12.067,12.067c6.665,0,12.067-5.403,12.067-12.067
	v-35.931c59.775-5.715,107.472-53.412,113.186-113.186h35.931c6.665,0,12.067-5.403,12.067-12.067
	C429.253,249.335,423.85,243.933,417.185,243.933z M268.067,356.969v-15.636c0-6.665-5.403-12.067-12.067-12.067
	c-6.665,0-12.067,5.403-12.067,12.067v15.636c-46.451-5.52-83.384-42.451-88.902-88.902h15.636c6.665,0,12.067-5.403,12.067-12.067
	c0-6.665-5.403-12.067-12.067-12.067h-15.636c5.52-46.451,42.451-83.384,88.902-88.902v15.636c0,6.665,5.403,12.067,12.067,12.067
	c6.665,0,12.067-5.403,12.067-12.067v-15.636c46.451,5.52,83.384,42.451,88.902,88.902h-15.636c-6.665,0-12.067,5.403-12.067,12.067
	c0,6.665,5.403,12.067,12.067,12.067h15.636C351.451,314.518,314.518,351.451,268.067,356.969z"/>
<path style="fill:#EAA22F;" d="M417.185,243.933h-35.931c-5.715-59.775-53.412-107.472-113.186-113.186V94.815
	c0-6.665-5.403-12.067-12.067-12.067v99.987c6.665,0,12.067-5.403,12.067-12.067v-15.636c46.451,5.52,83.384,42.451,88.902,88.902
	h-15.636c-6.665,0-12.067,5.403-12.067,12.067c0,6.665,5.403,12.067,12.067,12.067h15.636c-5.52,46.451-42.451,83.384-88.902,88.902
	v-15.636c0-6.665-5.403-12.067-12.067-12.067v99.987c6.665,0,12.067-5.403,12.067-12.067v-35.931
	c59.775-5.715,107.472-53.412,113.186-113.186h35.931c6.665,0,12.067-5.403,12.067-12.067
	C429.253,249.335,423.85,243.933,417.185,243.933z"/>
<g>
</g>
<g>
</g>
<g>
</g>
<g>
</g>
<g>
</g>
<g>
</g>
<g>
</g>
<g>
</g>
<g>
</g>
<g>
</g>
<g>
</g>
<g>
</g>
<g>
</g>
<g>
</g>
<g>
</g>
</svg>
